<mxfile host="app.diagrams.net" modified="2023-06-20T03:05:09.043Z" agent="Mozilla/5.0 (Windows NT 10.0; Win64; x64) AppleWebKit/537.36 (KHTML, like Gecko) Chrome/114.0.0.0 Safari/537.36 Edg/114.0.1823.51" etag="iUtzyJc7d3SRap7QsRBl" version="21.5.0" type="github">
  <diagram name="PÃ¡gina-1" id="f4gNh7w-QyLZGoPMHidw">
    <mxGraphModel dx="474" dy="795" grid="1" gridSize="10" guides="1" tooltips="1" connect="1" arrows="1" fold="1" page="1" pageScale="1" pageWidth="827" pageHeight="1169" math="0" shadow="0">
      <root>
        <mxCell id="0" />
        <mxCell id="1" parent="0" />
        <mxCell id="vmo1mmF-AT_ZQ8zhGVw--1" value="" style="rounded=1;whiteSpace=wrap;html=1;fillColor=#dae8fc;strokeColor=#6c8ebf;" vertex="1" parent="1">
          <mxGeometry x="119" y="20" width="590" height="60" as="geometry" />
        </mxCell>
        <mxCell id="vmo1mmF-AT_ZQ8zhGVw--4" style="rounded=0;orthogonalLoop=1;jettySize=auto;html=1;" edge="1" parent="1" source="vmo1mmF-AT_ZQ8zhGVw--2" target="vmo1mmF-AT_ZQ8zhGVw--3">
          <mxGeometry relative="1" as="geometry" />
        </mxCell>
        <mxCell id="vmo1mmF-AT_ZQ8zhGVw--2" value="&lt;font style=&quot;font-size: 18px;&quot;&gt;System_Controler&lt;/font&gt;" style="rounded=1;whiteSpace=wrap;html=1;fillColor=#7EA6E0;strokeColor=#006aff;fillStyle=solid;" vertex="1" parent="1">
          <mxGeometry x="249" y="25" width="311" height="50" as="geometry" />
        </mxCell>
        <mxCell id="vmo1mmF-AT_ZQ8zhGVw--7" value="" style="rounded=0;orthogonalLoop=1;jettySize=auto;html=1;" edge="1" parent="1" source="vmo1mmF-AT_ZQ8zhGVw--3" target="vmo1mmF-AT_ZQ8zhGVw--5">
          <mxGeometry relative="1" as="geometry" />
        </mxCell>
        <mxCell id="vmo1mmF-AT_ZQ8zhGVw--3" value="&lt;font style=&quot;font-size: 18px;&quot;&gt;LCD&lt;/font&gt;" style="rounded=1;whiteSpace=wrap;html=1;fillColor=#7EA6E0;strokeColor=#006aff;fillStyle=solid;" vertex="1" parent="1">
          <mxGeometry x="90" y="180" width="140" height="50" as="geometry" />
        </mxCell>
        <mxCell id="vmo1mmF-AT_ZQ8zhGVw--8" value="" style="rounded=0;orthogonalLoop=1;jettySize=auto;html=1;" edge="1" parent="1" source="vmo1mmF-AT_ZQ8zhGVw--5" target="vmo1mmF-AT_ZQ8zhGVw--6">
          <mxGeometry relative="1" as="geometry" />
        </mxCell>
        <mxCell id="vmo1mmF-AT_ZQ8zhGVw--5" value="&lt;font style=&quot;font-size: 18px;&quot;&gt;HAL_I2C&lt;/font&gt;" style="rounded=1;whiteSpace=wrap;html=1;fillColor=#7EA6E0;strokeColor=#006aff;fillStyle=solid;" vertex="1" parent="1">
          <mxGeometry x="60" y="300" width="120" height="50" as="geometry" />
        </mxCell>
        <mxCell id="vmo1mmF-AT_ZQ8zhGVw--6" value="&lt;font style=&quot;font-size: 18px;&quot;&gt;I2C&lt;/font&gt;" style="rounded=1;whiteSpace=wrap;html=1;fillColor=#7EA6E0;strokeColor=#006aff;fillStyle=solid;" vertex="1" parent="1">
          <mxGeometry x="40" y="420" width="110" height="50" as="geometry" />
        </mxCell>
      </root>
    </mxGraphModel>
  </diagram>
</mxfile>
